PathFileType	4	(X/Y/Z)	C:/Users/opensim2020/Desktop/walking_exp_matlab/subject06_walking16_straight_02.trc																																																																																																																																																							
DataRate	CameraRate	NumFrames	NumMarkers	Units	OrigDataRate	OrigDataStartFrame	OrigNumFrames																																																																																																																																																			
100	100	8	51	mm	100	1954	283																																																																																																																																																			
Frame#	Time	LFHD			RFHD			LBHD			RBHD			C7			T10			CLAV			STRN			RBAK			LSHO			LUPA			LELB			LFRM			LWRA			LWRB			LFIN			RSHO			RUPA			RELB			RFRM			RWRA			RWRB			RFIN			LASI			RASI			LPSI			RPSI			LTHI			LKNE			LTIB			LANK			LHEE			LTOE			RTHI			RKNE			RTIB			RANK			RHEE			RTOE			*39			*40			*41			*42			*43			*44			*45			*46			*47			*48			*49			*50		
		X1	Y1	Z1	X2	Y2	Z2	X3	Y3	Z3	X4	Y4	Z4	X5	Y5	Z5	X6	Y6	Z6	X7	Y7	Z7	X8	Y8	Z8	X9	Y9	Z9	X10	Y10	Z10	X11	Y11	Z11	X12	Y12	Z12	X13	Y13	Z13	X14	Y14	Z14	X15	Y15	Z15	X16	Y16	Z16	X17	Y17	Z17	X18	Y18	Z18	X19	Y19	Z19	X20	Y20	Z20	X21	Y21	Z21	X22	Y22	Z22	X23	Y23	Z23	X24	Y24	Z24	X25	Y25	Z25	X26	Y26	Z26	X27	Y27	Z27	X28	Y28	Z28	X29	Y29	Z29	X30	Y30	Z30	X31	Y31	Z31	X32	Y32	Z32	X33	Y33	Z33	X34	Y34	Z34	X35	Y35	Z35	X36	Y36	Z36	X37	Y37	Z37	X38	Y38	Z38	X39	Y39	Z39	X40	Y40	Z40	X41	Y41	Z41	X42	Y42	Z42	X43	Y43	Z43	X44	Y44	Z44	X45	Y45	Z45	X46	Y46	Z46	X47	Y47	Z47	X48	Y48	Z48	X49	Y49	Z49	X50	Y50	Z50	X51	Y51	Z51
																																																																																																																																																										
1	0	-1321.51685	1679.66736	-1499.23145	-1321.02271	1665.19763	-1367.97327	-1452.63354	1620.17078	-1500.57446	-1451.02441	1611.40015	-1372.20471	-1448.20886	1464.9657	-1438.14148	-1486.91248	1138.69629	-1421.20044	-1339.80212	1386.64709	-1448.83008	-1305.9314	1209.03821	-1458.55811	-1513.28101	1297.68701	-1347.01294	-1413.12952	1418.39868	-1603.99524	-1439.86975	1217.8092	-1675.22144	-1454.94519	1106.86096	-1686.12354	-1441.26587	957.33496	-1709.3136	-1389.04492	838.84033	-1668.05627	-1451.99365	838.89307	-1706.45667	-1412.07434	754.4256	-1707.14319	-1363.30261	1420.11646	-1284.13525	-1384.82532	1220.07495	-1191.60229	-1370.047	1098.39978	-1181.9364	-1344.35852	980.27966	-1170.00562	-1282.4342	846.64075	-1214.70703	-1328.40613	843.36072	-1164.82776	-1285.50208	770.70593	-1172.37793	-1326.84082	976.33087	-1552.82068	-1302.43188	973.51849	-1333.39783	-1483.23792	1006.37537	-1509.85095	-1456.01917	1006.9881	-1342.32202	-1338.13916	670.24396	-1613.16455	-1291.38354	514.32855	-1589.29431	-1391.73303	284.34036	-1588.15881	-1439.83386	117.15604	-1555.5448	-1475.58789	107.55829	-1504.4552	-1310.59961	55.59161	-1578.32556	-1380.81665	638.58984	-1289.47632	-1391.87378	514.36914	-1317.30005	-1461.10828	256.18317	-1333.30396	-1485.34167	73.64516	-1390.08228	-1524.54236	50.72085	-1437.02893	-1331.578	37.62749	-1391.19409	-1423.14197	1712.62793	-1438.71851	NaN	NaN	NaN	NaN	NaN	NaN	NaN	NaN	NaN	NaN	NaN	NaN	NaN	NaN	NaN	NaN	NaN	NaN	NaN	NaN	NaN	NaN	NaN	NaN	NaN	NaN	NaN	NaN	NaN	NaN	NaN	NaN	NaN
2	0.01	-1315.36829	1679.04163	-1499.20374	-1314.91077	1664.62488	-1367.97131	-1446.48816	1619.64954	-1500.66406	-1444.9801	1610.90417	-1372.28809	-1442.13428	1464.4165	-1438.14429	-1481.02441	1138.15979	-1421.13293	-1333.8197	1386.07031	-1448.81445	-1299.94446	1208.53235	-1458.32788	-1507.35291	1297.27832	-1346.83838	-1407.18835	1417.82605	-1603.96118	-1434.97766	1217.45935	-1675.23474	-1450.79846	1106.62537	-1686.13708	-1438.12231	956.9212	-1709.28638	-1386.77063	838.13892	-1668.06055	-1447.67139	837.18976	-1704.7948	-1410.35571	753.52936	-1706.7666	-1357.24097	1419.7002	-1284.09314	-1378.85486	1219.80444	-1191.28174	-1363.98792	1098.07751	-1181.51697	-1337.61328	980.19879	-1169.81104	-1274.77942	847.11499	-1215.15649	-1320.42334	843.46271	-1165.06482	-1277.03528	771.27631	-1172.99805	-1320.43884	976.10455	-1552.4458	-1297.49329	972.85651	-1333.8092	-1476.8197	1005.77869	-1509.94226	-1450.17761	1006.27466	-1342.28735	-1330.70947	670.08563	-1612.67969	-1282.92944	514.40735	-1588.62085	-1374.14539	280.276	-1588.2179	-1415.73218	111.26093	-1556.1134	-1451.27332	100.04285	-1505.23999	-1283.77197	54.89366	-1576.8512	-1376.26477	638.01648	-1289.66858	-1388.3009	513.83032	-1317.42163	-1459.26807	256.14078	-1333.62805	-1484.77466	73.75589	-1390.39343	-1524.45728	50.93133	-1437.22351	-1331.43591	37.40026	-1391.49963	-1417.02234	1712.0835	-1438.84631	NaN	NaN	NaN	NaN	NaN	NaN	NaN	NaN	NaN	NaN	NaN	NaN	NaN	NaN	NaN	NaN	NaN	NaN	NaN	NaN	NaN	NaN	NaN	NaN	NaN	NaN	NaN	NaN	NaN	NaN	NaN	NaN	NaN
3	0.02	-1309.1698	1678.38037	-1499.35522	-1308.8783	1664.02063	-1368.06409	-1440.33752	1619.04468	-1500.81763	-1438.88696	1610.33374	-1372.42297	-1436.1062	1463.80688	-1438.16565	-1475.01672	1137.46838	-1421.01428	-1327.86194	1385.45947	-1448.77881	-1293.93359	1207.93164	-1458.10461	-1501.42163	1296.79175	-1346.73547	-1401.23474	1417.15552	-1603.93555	-1430.00684	1216.99561	-1675.2688	-1446.49976	1106.25159	-1686.10498	-1434.93079	956.52863	-1709.24316	-1384.42468	837.42914	-1667.88281	-1445.00403	836.4964	-1704.36096	-1408.71887	753.09222	-1706.74805	-1351.25366	1419.20447	-1284.09729	-1372.81458	1219.44873	-1191.05212	-1358.04175	1097.75488	-1181.0658	-1330.77893	980.01959	-1169.71033	-1266.99365	847.8161	-1215.59094	-1312.50891	843.46771	-1165.3092	-1268.375	771.55548	-1173.51025	-1313.96191	975.63849	-1552.13037	-1290.82837	972.40979	-1332.6167	-1470.44836	1005.11188	-1509.99243	-1444.40503	1005.56445	-1342.34705	-1323.51099	669.6145	-1612.37646	-1274.80884	514.32532	-1587.87805	-1356.58667	276.46399	-1588.44617	-1391.40283	105.89957	-1556.55017	-1427.35303	93.5464	-1506.23474	-1256.91113	54.47289	-1574.89282	-1371.60925	637.45032	-1289.87805	-1384.56812	513.27417	-1317.45715	-1457.20679	255.98878	-1334.03613	-1484.62427	73.82597	-1390.55676	-1524.36597	51.11522	-1437.38879	-1331.31152	37.36573	-1391.57178	-1410.83179	1711.45581	-1438.98608	NaN	NaN	NaN	NaN	NaN	NaN	NaN	NaN	NaN	NaN	NaN	NaN	NaN	NaN	NaN	NaN	NaN	NaN	NaN	NaN	NaN	NaN	NaN	NaN	NaN	NaN	NaN	NaN	NaN	NaN	NaN	NaN	NaN
4	0.03	-1302.98096	1677.62915	-1499.50684	-1302.63391	1663.36902	-1368.25195	-1434.14526	1618.34668	-1501.01978	-1432.81274	1609.71655	-1372.61816	-1430.05994	1463.10242	-1438.28711	-1469.00427	1136.69653	-1420.98022	-1321.81323	1384.77368	-1448.8595	-1287.87219	1207.29077	-1457.93579	-1495.41089	1296.14697	-1346.66833	-1395.22766	1416.39148	-1603.97595	-1424.93689	1216.47729	-1675.33765	-1442.10181	1105.80322	-1686.1123	-1431.58899	956.04974	-1709.2821	-1382.23145	835.9668	-1667.38611	-1442.8269	836.34058	-1704.58679	-1406.86328	752.3335	-1706.48059	-1345.24768	1418.61328	-1284.16931	-1366.94751	1219.05933	-1190.81604	-1352.01746	1097.34351	-1180.66541	-1324.02112	979.79626	-1169.60632	-1259.41064	848.04889	-1215.92542	-1304.58228	843.41266	-1165.64368	-1259.96497	771.90546	-1173.86365	-1307.41394	975.28351	-1551.80237	-1285.97205	971.67163	-1333.18701	-1464.06262	1004.3667	-1510.02722	-1438.44287	1004.7135	-1342.29919	-1316.46265	669.15906	-1611.92908	-1266.88171	514.10699	-1587.18652	-1339.07495	272.95032	-1588.54529	-1366.974	101.00657	-1556.81177	-1403.29199	87.6599	-1507.47192	-1230.13696	54.21429	-1572.55151	-1366.71106	636.82556	-1290.19421	-1380.75537	512.70868	-1317.5636	-1455.15686	255.85323	-1334.34375	-1484.30554	73.94344	-1390.75195	-1524.26111	51.32502	-1437.53796	-1331.2804	37.43965	-1391.52881	-1404.63135	1710.81885	-1439.26221	NaN	NaN	NaN	NaN	NaN	NaN	NaN	NaN	NaN	NaN	NaN	NaN	NaN	NaN	NaN	NaN	NaN	NaN	NaN	NaN	NaN	NaN	NaN	NaN	NaN	NaN	NaN	NaN	NaN	NaN	NaN	NaN	NaN
5	0.04	-1296.72668	1676.7345	-1499.71008	-1296.50708	1662.54541	-1368.47021	-1427.95557	1617.5802	-1501.29236	-1426.6532	1609.03735	-1372.85352	-1424.01245	1462.34204	-1438.31482	-1463.00537	1135.88257	-1420.91809	-1315.74268	1383.94312	-1448.8623	-1281.83325	1206.51648	-1457.78967	-1489.39978	1295.43005	-1346.59729	-1389.23193	1415.49109	-1603.99182	-1419.79578	1215.79089	-1675.35498	-1437.62488	1105.22705	-1686.09302	-1428.00183	955.29626	-1709.04163	-1379.36731	835.46271	-1667.34924	-1440.2395	835.89771	-1704.56689	-1404.7135	751.24194	-1705.99866	-1339.24719	1417.96887	-1284.22144	-1361.03271	1218.49438	-1190.59375	-1346.07019	1096.81628	-1180.33679	-1317.28687	979.48071	-1169.53674	-1251.50037	848.55573	-1216.35205	-1296.66284	843.26361	-1166.00439	-1251.34338	772.0484	-1174.77136	-1300.86292	974.75146	-1551.48853	-1277.52197	971.2019	-1332.13208	-1457.68542	1003.54517	-1510.12317	-1432.43933	1003.77045	-1342.30847	-1309.55359	668.50806	-1611.73596	-1259.0271	513.79462	-1586.55969	-1322.08643	269.98132	-1588.87036	-1342.5531	96.72916	-1556.87415	-1378.96619	82.28125	-1507.67908	-1203.90833	54.63916	-1570.28479	-1361.75928	636.1087	-1290.46252	-1376.83301	512.0141	-1317.7146	-1453.09912	255.72141	-1334.63953	-1483.96545	74.06546	-1390.94043	-1524.17273	51.60714	-1437.69604	-1331.14001	37.34521	-1391.60437	-1398.45898	1710.07788	-1439.60168	NaN	NaN	NaN	NaN	NaN	NaN	NaN	NaN	NaN	NaN	NaN	NaN	NaN	NaN	NaN	NaN	NaN	NaN	NaN	NaN	NaN	NaN	NaN	NaN	NaN	NaN	NaN	NaN	NaN	NaN	NaN	NaN	NaN
6	0.05	-1290.47217	1675.77136	-1499.96338	-1290.35242	1661.73462	-1368.69446	-1421.73535	1616.75513	-1501.59949	-1420.45422	1608.30798	-1373.14587	-1417.8584	1461.50098	-1438.45764	-1456.90332	1134.93909	-1420.94495	-1309.64514	1383.05322	-1448.92725	-1275.75525	1205.71167	-1457.6947	-1483.37769	1294.63684	-1346.63745	-1383.1842	1414.56128	-1604.12183	-1414.58081	1214.97815	-1675.32898	-1433.04175	1104.51184	-1686.10107	-1423.89026	953.78644	-1708.03552	-1376.9552	833.91632	-1666.81665	-1437.33984	835.18469	-1704.43213	-1402.5376	750.54523	-1705.92798	-1333.23279	1417.16748	-1284.3042	-1355.22314	1217.89026	-1190.37207	-1340.1134	1096.24426	-1179.99695	-1310.66199	979.10229	-1169.44348	-1243.75659	848.97314	-1216.85059	-1288.86536	843.09863	-1166.38159	-1243.0509	772.255	-1175.18726	-1294.31677	974.31909	-1551.25452	-1271.6687	970.64197	-1332.17285	-1451.15735	1002.57532	-1510.24829	-1426.37476	1002.81366	-1342.23047	-1301.80298	668.37372	-1612.57776	-1251.26782	513.3064	-1586.19275	-1304.67883	266.82471	-1588.45386	-1318.75366	93.26356	-1557.07495	-1355.05396	77.72064	-1508.19336	-1177.98438	55.38538	-1567.88916	-1356.71094	635.41132	-1290.755	-1372.92566	511.34814	-1317.78894	-1451.06335	255.64807	-1334.88904	-1483.58167	74.19533	-1391.12439	-1524.03967	51.882	-1437.81909	-1330.94507	37.18965	-1391.67712	-1392.14905	1709.24573	-1439.89978	NaN	NaN	NaN	NaN	NaN	NaN	NaN	NaN	NaN	NaN	NaN	NaN	NaN	NaN	NaN	NaN	NaN	NaN	NaN	NaN	NaN	NaN	NaN	NaN	NaN	NaN	NaN	NaN	NaN	NaN	NaN	NaN	NaN
7	0.06	-1284.18286	1674.76501	-1500.31738	-1284.16455	1660.88147	-1369.00024	-1415.54956	1615.85083	-1502.00037	-1414.31396	1607.52698	-1373.47888	-1411.73181	1460.63269	-1438.59973	-1450.80847	1133.96338	-1420.92664	-1303.51404	1382.14758	-1449.03662	-1269.70715	1204.82959	-1457.62891	-1477.35779	1293.7677	-1346.71619	-1377.12109	1413.50708	-1604.2019	-1409.28918	1214.1156	-1675.37805	-1428.3147	1103.67981	-1686.06274	-1420.47473	953.47882	-1708.57312	-1374.10925	832.76495	-1666.47498	-1434.39026	834.46692	-1704.39478	-1400.15515	749.55322	-1705.53687	-1327.09912	1416.38281	-1284.36572	-1349.36633	1217.21899	-1190.22644	-1334.16455	1095.58533	-1179.67761	-1303.94568	978.66681	-1169.43286	-1236.33899	849.01404	-1217.25818	-1281.13965	842.80194	-1166.94946	-1234.70471	772.38452	-1176.04932	-1287.70776	973.76843	-1551.04309	-1265.60681	969.92365	-1331.96289	-1444.66699	1001.49969	-1510.33911	-1420.21948	1001.73749	-1342.24768	-1295.7489	667.00311	-1612.05188	-1243.63574	512.67169	-1585.81726	-1287.97241	264.11838	-1588.23901	-1294.31604	89.98891	-1556.5929	-1331.05078	73.69176	-1508.29688	-1152.59717	56.3952	-1565.34595	-1351.48425	634.73785	-1291.16748	-1368.87891	510.82916	-1317.92993	-1449.00964	255.60771	-1335.08459	-1483.19751	74.33941	-1391.31897	-1523.9187	52.14981	-1437.92651	-1330.80127	37.15874	-1391.78821	-1385.85352	1708.38855	-1440.32007	NaN	NaN	NaN	NaN	NaN	NaN	NaN	NaN	NaN	NaN	NaN	NaN	NaN	NaN	NaN	NaN	NaN	NaN	NaN	NaN	NaN	NaN	NaN	NaN	NaN	NaN	NaN	NaN	NaN	NaN	NaN	NaN	NaN
8	0.07	-1277.9126	1673.68518	-1500.72754	-1277.86169	1659.91162	-1369.4093	-1409.20801	1614.80481	-1502.28992	-1408.05212	1606.67126	-1373.7998	-1405.59021	1459.67444	-1438.86035	-1444.63831	1132.948	-1421.01501	-1297.39697	1381.10461	-1449.16565	-1263.52734	1203.89575	-1457.573	-1471.36011	1293.03821	-1346.49854	-1370.97913	1412.36255	-1604.39783	-1403.93079	1213.13428	-1675.46899	-1423.5603	1102.81812	-1686.026	-1416.62207	952.5191	-1708.46631	-1371.14709	831.55884	-1666.08765	-1431.21777	833.62811	-1704.24805	-1397.64014	748.41119	-1705.08423	-1320.98303	1415.5321	-1284.46558	-1343.97546	1216.36609	-1189.91064	-1328.21313	1094.85205	-1179.44458	-1297.26025	978.1427	-1169.45227	-1228.50525	849.29529	-1217.74207	-1273.33923	842.49994	-1167.2135	-1226.36194	772.48492	-1176.78638	-1281.08728	973.11182	-1550.85193	-1259.35156	969.21454	-1331.8728	-1438.09631	1000.36761	-1510.49255	-1414.03052	1000.65277	-1342.27393	-1289.10522	665.89221	-1612.24048	-1236.1543	511.8732	-1585.69519	-1271.42151	261.72406	-1588.01563	-1270.67773	87.40033	-1555.96753	-1307.26416	70.20469	-1508.15027	-1127.62988	57.80128	-1562.6272	-1346.30273	633.94226	-1291.4469	-1364.9325	510.21069	-1317.96045	-1446.86072	255.4669	-1335.36292	-1482.86108	74.47301	-1391.4718	-1523.85669	52.47198	-1438.05933	-1330.52893	37.03181	-1392.03748	-1379.5481	1707.42896	-1440.77246	NaN	NaN	NaN	NaN	NaN	NaN	NaN	NaN	NaN	NaN	NaN	NaN	NaN	NaN	NaN	NaN	NaN	NaN	NaN	NaN	NaN	NaN	NaN	NaN	NaN	NaN	NaN	NaN	NaN	NaN	NaN	NaN	NaN
